# xmcd
#
# Track frame offsets:
# 150
# 13414
# 27873
# 43116
# 53498
# 64515
# 75863
# 88218
# 102413
# 118914
# 131485
#
# Disc length: 1904 seconds
#
# Revision: 0
# Processed by: cddbd v1.4PL0 Copyright (c) Steve Scherf et al.
# Submitted via: Axialis_AX_CDPlayer 2.6
#
DISCID=8a076e0b
DTITLE=Dave van Ronk - Ragtime Jug Stompers
DYEAR=1900
DGENRE=
TTITLE0=Everybody loves my baby
TTITLE1=Stealing
TTITLE2=St. Louis Tickle
TTITLE3=Sister Kabe
TTITLE4=Take it slow and easy
TTITLE5=Mack the knife
TTITLE6=Digging my potatoes
TTITLE7=Temptation rag
TTITLE8=K. C. Moan
TTITLE9=Georgia Camp meeting
TTITLE10=You're a viper
EXTD=
EXTT0=
EXTT1=
EXTT2=
EXTT3=
EXTT4=
EXTT5=
EXTT6=
EXTT7=
EXTT8=
EXTT9=
EXTT10=
PLAYORDER=
